<svg width="148" height="363" viewBox="0 0 148 363" fill="none" xmlns="http://www.w3.org/2000/svg">
<path d="M132.207 255.309C132.207 257.314 130.703 258.544 127.695 259C122.318 259.729 116.621 260.094 110.605 260.094C104.225 260.094 98.8932 259.729 94.6094 259C93.5156 258.818 91.8294 257.906 89.5508 256.266C85.0846 249.885 78.2943 240.361 69.1797 227.691C66.901 230.426 59.4271 239.814 46.7578 255.855C45.5729 257.496 43.8867 258.544 41.6992 259C38.5091 259.729 33.4961 260.094 26.6602 260.094C12.2591 260.094 5.05859 258.499 5.05859 255.309C5.05859 252.665 5.10417 248.655 5.19531 243.277C5.28646 237.809 5.33203 233.707 5.33203 230.973C5.33203 229.423 6.15234 227.737 7.79297 225.914C14.9023 218.531 25.3841 207.366 39.2383 192.418C32.8581 186.311 26.5234 180.204 20.2344 174.098C10.1172 164.163 5.05859 158.284 5.05859 156.461V132.398C5.05859 130.029 6.65365 128.844 9.84375 128.844C13.4896 128.844 18.9128 128.98 26.1133 129.254C33.4049 129.527 38.8737 129.664 42.5195 129.664C44.3424 129.664 46.0286 130.667 47.5781 132.672C52.5911 139.326 59.6094 147.757 68.6328 157.965C76.8359 148.03 83.3529 139.599 88.1836 132.672C89.5508 130.849 91.237 129.938 93.2422 129.938C97.0703 129.938 102.767 129.755 110.332 129.391C117.897 129.026 123.594 128.844 127.422 128.844C130.612 128.844 132.207 130.029 132.207 132.398V156.461C132.207 158.193 131.432 159.788 129.883 161.246C122.956 168.264 112.702 178.928 99.1211 193.238C106.048 200.439 116.302 211.422 129.883 226.188C131.432 227.919 132.207 229.605 132.207 231.246V255.309Z" fill="black"/>
<path d="M114.434 237.363C114.434 238.796 113.359 239.674 111.211 240C107.37 240.521 103.301 240.781 99.0039 240.781C94.4466 240.781 90.638 240.521 87.5781 240C86.7969 239.87 85.5924 239.219 83.9648 238.047C80.7747 233.49 75.9245 226.686 69.4141 217.637C67.7865 219.59 62.4479 226.296 53.3984 237.754C52.5521 238.926 51.3477 239.674 49.7852 240C47.5065 240.521 43.9258 240.781 39.043 240.781C28.7565 240.781 23.6133 239.642 23.6133 237.363C23.6133 235.475 23.6458 232.611 23.7109 228.77C23.776 224.863 23.8086 221.934 23.8086 219.98C23.8086 218.874 24.3945 217.669 25.5664 216.367C30.6445 211.094 38.1315 203.118 48.0273 192.441C43.4701 188.079 38.9453 183.717 34.4531 179.355C27.2266 172.259 23.6133 168.06 23.6133 166.758V149.57C23.6133 147.878 24.7526 147.031 27.0312 147.031C29.6354 147.031 33.5091 147.129 38.6523 147.324C43.8607 147.52 47.7669 147.617 50.3711 147.617C51.6732 147.617 52.8776 148.333 53.9844 149.766C57.5651 154.518 62.5781 160.54 69.0234 167.832C74.8828 160.736 79.5378 154.714 82.9883 149.766C83.9648 148.464 85.1693 147.812 86.6016 147.812C89.3359 147.812 93.4049 147.682 98.8086 147.422C104.212 147.161 108.281 147.031 111.016 147.031C113.294 147.031 114.434 147.878 114.434 149.57V166.758C114.434 167.995 113.88 169.134 112.773 170.176C107.826 175.189 100.501 182.806 90.8008 193.027C95.7487 198.171 103.073 206.016 112.773 216.562C113.88 217.799 114.434 219.004 114.434 220.176V237.363Z" fill="white"/>
<path d="M102.825 226.022C102.825 227.097 102.02 227.756 100.408 228C97.5273 228.391 94.4756 228.586 91.2529 228.586C87.835 228.586 84.9785 228.391 82.6836 228C82.0977 227.902 81.1943 227.414 79.9736 226.535C77.5811 223.117 73.9434 218.015 69.0605 211.228C67.8398 212.692 63.8359 217.722 57.0488 226.315C56.4141 227.194 55.5107 227.756 54.3389 228C52.6299 228.391 49.9443 228.586 46.2822 228.586C38.5674 228.586 34.71 227.731 34.71 226.022C34.71 224.606 34.7344 222.458 34.7832 219.577C34.832 216.647 34.8564 214.45 34.8564 212.985C34.8564 212.155 35.2959 211.252 36.1748 210.275C39.9834 206.32 45.5986 200.339 53.0205 192.331C49.6025 189.06 46.209 185.788 42.8398 182.517C37.4199 177.194 34.71 174.045 34.71 173.068V160.178C34.71 158.908 35.5645 158.273 37.2734 158.273C39.2266 158.273 42.1318 158.347 45.9893 158.493C49.8955 158.64 52.8252 158.713 54.7783 158.713C55.7549 158.713 56.6582 159.25 57.4883 160.324C60.1738 163.889 63.9336 168.405 68.7676 173.874C73.1621 168.552 76.6533 164.035 79.2412 160.324C79.9736 159.348 80.877 158.859 81.9512 158.859C84.002 158.859 87.0537 158.762 91.1064 158.566C95.1592 158.371 98.2109 158.273 100.262 158.273C101.971 158.273 102.825 158.908 102.825 160.178V173.068C102.825 173.996 102.41 174.851 101.58 175.632C97.8691 179.392 92.376 185.104 85.1006 192.771C88.8115 196.628 94.3047 202.512 101.58 210.422C102.41 211.35 102.825 212.253 102.825 213.132V226.022Z" fill="black"/>
</svg>
